<?xml version="1.0" standalone="no"?>
<!DOCTYPE svg PUBLIC "-//W3C//DTD SVG 20010904//EN"
 "http://www.w3.org/TR/2001/REC-SVG-20010904/DTD/svg10.dtd">
<svg version="1.0" xmlns="http://www.w3.org/2000/svg"
 width="600.000000pt" height="600.000000pt" viewBox="0 0 600.000000 600.000000"
 preserveAspectRatio="xMidYMid meet">
<metadata>
Created by potrace 1.11, written by Peter Selinger 2001-2013
</metadata>
<g transform="translate(0.000000,600.000000) scale(0.100000,-0.100000)"
fill="#000000" stroke="none">
<path d="M4348 5844 c-2 -1 -28 -4 -58 -7 -106 -9 -210 -45 -137 -48 41 -1 59
-7 141 -48 44 -23 88 -41 97 -41 22 0 95 -65 102 -90 3 -13 0 -23 -9 -27 -15
-6 -19 -33 -5 -33 14 0 25 -40 14 -51 -5 -5 -18 -10 -30 -12 -11 -1 -28 -8
-36 -15 -8 -7 -46 -15 -83 -18 -64 -5 -125 -23 -82 -24 9 0 24 -8 33 -17 16
-16 16 -17 0 -30 -10 -7 -22 -10 -26 -7 -4 2 -36 6 -71 9 l-63 4 34 -17 c108
-53 -24 -52 -140 1 -41 19 -92 40 -114 48 -22 7 -44 17 -50 21 -5 4 -20 8 -33
8 -14 0 -57 16 -97 35 -78 37 -125 50 -225 60 -117 12 -140 15 -179 24 -48 10
-327 11 -361 1 -22 -7 -20 -8 15 -10 22 -1 54 -3 70 -5 17 -2 62 -6 100 -9 90
-7 185 -32 207 -54 26 -26 30 -80 8 -99 -45 -39 -132 -63 -242 -68 -59 -3
-125 -7 -145 -10 -21 -2 -81 -7 -135 -10 -53 -4 -102 -8 -110 -9 -7 -2 -34 -6
-61 -11 -70 -11 -65 -22 6 -15 34 4 121 5 192 4 213 -4 244 -14 193 -61 -40
-36 -64 -43 -170 -48 -57 -2 -115 -7 -130 -10 -68 -13 -112 -44 -53 -37 18 2
41 -1 52 -6 20 -11 71 -97 78 -132 6 -31 -44 -65 -116 -79 -136 -26 -435 -103
-522 -136 -51 -18 -139 -48 -197 -66 -58 -17 -114 -40 -126 -51 -12 -10 -72
-32 -134 -48 -103 -27 -266 -97 -315 -135 -11 -8 -58 -40 -105 -72 -118 -79
-164 -114 -195 -152 l-27 -32 58 27 c33 14 83 34 111 43 29 10 65 26 81 38 83
62 161 79 382 87 30 1 70 10 90 20 46 25 183 71 300 102 52 14 127 36 165 49
152 52 262 67 285 40 18 -21 -9 -62 -62 -96 -26 -17 -52 -37 -56 -43 -10 -17
-76 -54 -135 -76 -27 -10 -79 -37 -115 -58 -176 -104 -202 -117 -364 -172
-228 -79 -423 -185 -588 -321 -25 -20 -65 -47 -90 -59 -97 -48 -249 -178 -331
-282 l-34 -43 56 48 c40 33 79 55 131 72 40 14 85 36 98 48 95 87 164 114 309
122 74 3 96 -11 107 -70 11 -63 -24 -190 -69 -245 -6 -9 -58 -55 -115 -104
-57 -49 -109 -101 -117 -117 -17 -32 -25 -40 -95 -100 -62 -52 -294 -273 -400
-380 -55 -55 -87 -98 -118 -160 -23 -46 -35 -73 -25 -59 37 52 109 122 173
170 37 28 71 50 75 50 4 0 29 18 55 40 45 37 55 41 119 46 44 3 86 12 110 25
l39 20 103 -50 c57 -27 120 -56 139 -64 89 -37 137 -119 146 -250 3 -37 11
-82 19 -100 11 -26 11 -41 0 -82 -13 -51 -8 -73 20 -102 9 -8 12 -42 11 -105
l-3 -93 -72 -148 c-66 -136 -99 -222 -116 -304 -10 -48 -8 -202 4 -258 9 -49
27 -105 34 -105 1 0 3 43 4 96 3 176 12 224 66 346 17 39 51 83 105 138 79 81
79 82 115 72 40 -11 96 -68 114 -115 12 -33 10 -287 -2 -307 -3 -6 -8 -92 -10
-193 -2 -100 -7 -207 -11 -237 -14 -94 -9 -171 14 -220 l21 -45 1 40 c1 56 9
120 22 185 6 30 12 60 14 65 9 46 65 227 76 244 19 31 32 34 168 37 l125 3 48
-52 c67 -73 74 -104 48 -201 -12 -42 -33 -94 -47 -115 -15 -23 -27 -58 -30
-87 -2 -27 -7 -59 -9 -71 -5 -22 -17 -149 -18 -188 -1 -40 15 -155 21 -155 4
0 7 35 8 78 1 56 6 88 21 117 11 22 28 74 38 115 10 41 24 79 31 83 8 4 34 37
59 72 25 35 55 67 65 70 11 4 27 14 37 23 14 14 36 17 120 16 57 0 108 -5 114
-11 5 -5 12 -25 14 -44 3 -19 7 -45 10 -59 10 -48 8 -86 -8 -120 -8 -19 -18
-57 -21 -84 -4 -33 -17 -64 -39 -94 -41 -58 -88 -107 -107 -114 -13 -4 -12
-15 9 -74 53 -153 56 -155 162 -130 55 13 59 13 119 -14 35 -16 69 -26 76 -23
7 3 30 25 50 50 39 47 88 75 120 69 11 -2 51 -14 90 -25 38 -12 99 -25 135
-29 56 -7 76 -4 162 24 l99 32 71 -19 c86 -22 116 -23 141 -4 16 12 23 12 55
-1 20 -8 45 -23 56 -33 36 -33 65 -43 138 -45 56 -3 82 -9 117 -29 25 -14 65
-28 90 -32 25 -4 83 -14 130 -24 47 -9 133 -18 192 -20 103 -2 110 -1 160 27
29 17 79 38 111 48 71 22 87 39 93 99 3 28 18 68 36 97 25 40 29 56 25 86 -33
210 -38 229 -75 307 -22 46 -57 102 -78 125 -34 38 -38 48 -39 99 -1 47 -9 74
-47 151 -25 52 -55 105 -65 116 -10 12 -38 45 -62 73 -105 125 -209 228 -242
241 -16 7 -44 27 -62 44 -86 82 -191 149 -377 242 -96 47 -245 177 -321 278
-24 33 -59 77 -76 99 -18 21 -38 57 -44 80 -7 23 -19 47 -27 54 -19 16 -18 54
4 119 17 51 17 56 1 126 -10 40 -20 87 -23 103 -2 17 -14 64 -25 105 l-20 75
36 32 c27 23 38 41 41 70 8 67 49 96 214 152 133 44 149 53 193 97 40 40 53
47 85 47 61 0 112 -12 161 -38 54 -29 122 -54 171 -64 34 -6 37 -10 77 -111
43 -108 58 -153 67 -204 6 -35 37 -69 91 -104 22 -13 48 -33 58 -44 24 -25 69
-134 66 -162 -3 -38 1 -44 28 -51 27 -6 89 -69 180 -181 77 -95 90 -107 107
-101 26 10 21 131 -8 219 -14 40 -27 93 -31 118 -4 24 -9 48 -12 53 -7 11 -14
136 -14 246 -1 73 -4 90 -25 120 -30 44 -30 57 -1 65 12 3 42 24 67 46 25 22
48 40 51 40 7 0 54 140 52 158 0 6 -1 17 -2 22 -2 15 -39 12 -48 -4 -9 -16
-56 -28 -79 -19 -8 3 -14 18 -14 33 0 16 -4 32 -10 35 -5 3 -10 1 -10 -4 0 -6
-7 -11 -15 -11 -20 0 -49 58 -36 74 5 6 15 25 21 41 l11 30 -23 -23 c-14 -12
-27 -22 -31 -22 -3 0 -15 31 -27 69 -24 80 -26 194 -6 248 8 21 18 61 22 88 9
63 9 63 27 105 15 36 14 64 -3 135 -5 22 -12 69 -15 105 -4 36 -13 94 -21 129
-15 65 -13 149 5 220 6 20 12 56 15 81 3 25 10 62 15 83 5 20 7 37 5 37 -9 0
25 56 45 74 12 11 21 25 21 33 0 8 9 23 20 35 11 12 20 27 20 34 0 23 51 126
94 190 l43 65 13 -31 c20 -48 30 -25 26 60 -2 44 -1 82 3 85 10 6 45 -32 65
-69 l15 -29 7 27 c3 14 3 36 -1 49 -24 81 -24 85 4 95 38 13 138 7 157 -9 16
-13 17 -11 10 21 -13 69 -100 175 -154 190 -21 5 -40 8 -43 7 -3 -1 -21 10
-40 24 -29 22 -39 24 -69 17 -19 -5 -42 -12 -51 -18 -11 -6 -23 -4 -35 5 -11
8 -41 15 -68 15 -36 0 -57 6 -80 24 -17 13 -41 26 -53 30 -19 6 -23 4 -23 -16
-1 -20 -2 -21 -11 -5 -20 35 -110 68 -304 113 -22 5 -153 12 -157 8z"/>
</g>
</svg>
